<svg width="34" height="32" viewBox="0 0 34 32" fill="none" xmlns="http://www.w3.org/2000/svg">
<path fill-rule="evenodd" clip-rule="evenodd" d="M33.0431 2.92202C33.6384 3.49808 33.654 4.4477 33.078 5.04305L16.5185 22.1571L8.92202 14.3062C8.34596 13.7109 8.3616 12.7612 8.95695 12.1852C9.55231 11.6091 10.5019 11.6248 11.078 12.2201L16.5185 17.8429L30.922 2.95695C31.4981 2.3616 32.4477 2.34596 33.0431 2.92202Z" fill="#0297D4"/>
<path d="M25.3207 5.08139C25.9102 4.39077 25.8324 3.34503 25.085 2.82942C22.4023 0.97883 19.2057 -0.0161158 15.9206 0.000197452C12.085 0.0192439 8.38392 1.41553 5.49156 3.93467C2.5992 6.45382 0.708046 9.92818 0.162628 13.7248C-0.382791 17.5214 0.453822 21.3877 2.52005 24.6192C4.58629 27.8507 7.74463 30.2324 11.4197 31.3304C15.0948 32.4284 19.042 32.1697 22.5423 30.6013C26.0426 29.0329 28.863 26.2593 30.4898 22.7858C31.883 19.8106 32.3212 16.4916 31.7671 13.28C31.6127 12.3852 30.6962 11.8758 29.8219 12.1211C28.9476 12.3665 28.4492 13.2741 28.5797 14.1727C28.9352 16.6197 28.5706 19.1304 27.5119 21.3912C26.2195 24.1508 23.9787 26.3544 21.1978 27.6005C18.4168 28.8465 15.2808 29.0521 12.361 28.1797C9.44126 27.3074 6.93202 25.4151 5.29043 22.8478C3.64885 20.2804 2.98417 17.2088 3.4175 14.1924C3.85082 11.1761 5.35331 8.41573 7.65124 6.41432C9.94917 4.4129 12.8896 3.30358 15.9369 3.28845C18.4333 3.27605 20.8652 3.99865 22.9372 5.34807C23.6981 5.84362 24.7311 5.77201 25.3207 5.08139Z" fill="#0297D4"/>
</svg>
