<?xml version="1.0" encoding="utf-8"?><svg xmlns="http://www.w3.org/2000/svg" xmlns:xlink="http://www.w3.org/1999/xlink"><symbol viewBox="0 0 82 73" id="ad-advert" xmlns="http://www.w3.org/2000/svg"><path d="M49.6674 17.1244H38.8326C37.1087 17.1244 35.4554 17.7368 34.2364 18.8268C33.0175 19.9169 32.3326 21.3953 32.3326 22.9369C32.3326 24.4785 33.0175 25.9569 34.2364 27.0469C35.4554 28.137 37.1087 28.7494 38.8326 28.7494H43.1674C44.8913 28.7494 46.5446 29.3618 47.7636 30.4518C48.9825 31.5419 49.6674 33.0203 49.6674 34.5619C49.6674 35.3252 49.4992 36.081 49.1726 36.7862C48.8459 37.4914 48.3671 38.1322 47.7636 38.6719C47.16 39.2117 46.4434 39.6398 45.6548 39.9319C44.8662 40.224 44.021 40.3744 43.1674 40.3744H32.3326M41 40.3744V44.2506M41 13.25V17.1244" stroke-width="2.08" stroke-linecap="round" stroke-linejoin="round"/><path d="M15 71.375H67M75.6674 1.625H6.33264C3.94064 1.625 2 3.36038 2 5.49938V51.9994C2 54.1384 3.94064 55.8756 6.33264 55.8756H75.6674C78.0594 55.8756 80 54.1402 80 51.9994V5.49938C80 3.36038 78.0594 1.625 75.6674 1.625Z" stroke-width="2.08" stroke-linecap="round" stroke-linejoin="round"/></symbol><symbol viewBox="0 0 15 26" id="arrow-left" xmlns="http://www.w3.org/2000/svg"><path d="M14 1L2 13L14 25" stroke-width="2" stroke-linecap="round"/></symbol><symbol viewBox="0 0 15 26" id="arrow-right" xmlns="http://www.w3.org/2000/svg"><path d="M1 1L13 13L1 25" stroke-width="2" stroke-linecap="round"/></symbol><symbol viewBox="0 0 34 32" id="done" xmlns="http://www.w3.org/2000/svg"><path fill-rule="evenodd" clip-rule="evenodd" d="M33.0431 2.92202C33.6384 3.49808 33.654 4.4477 33.078 5.04305L16.5185 22.1571L8.92202 14.3062C8.34596 13.7109 8.3616 12.7612 8.95695 12.1852C9.55231 11.6091 10.5019 11.6248 11.078 12.2201L16.5185 17.8429L30.922 2.95695C31.4981 2.3616 32.4477 2.34596 33.0431 2.92202Z"/><path d="M25.3207 5.08139C25.9102 4.39077 25.8324 3.34503 25.085 2.82942C22.4023 0.97883 19.2057 -0.0161158 15.9206 0.000197452C12.085 0.0192439 8.38392 1.41553 5.49156 3.93467C2.5992 6.45382 0.708046 9.92818 0.162628 13.7248C-0.382791 17.5214 0.453822 21.3877 2.52005 24.6192C4.58629 27.8507 7.74463 30.2324 11.4197 31.3304C15.0948 32.4284 19.042 32.1697 22.5423 30.6013C26.0426 29.0329 28.863 26.2593 30.4898 22.7858C31.883 19.8106 32.3212 16.4916 31.7671 13.28C31.6127 12.3852 30.6962 11.8758 29.8219 12.1211C28.9476 12.3665 28.4492 13.2741 28.5797 14.1727C28.9352 16.6197 28.5706 19.1304 27.5119 21.3912C26.2195 24.1508 23.9787 26.3544 21.1978 27.6005C18.4168 28.8465 15.2808 29.0521 12.361 28.1797C9.44126 27.3074 6.93202 25.4151 5.29043 22.8478C3.64885 20.2804 2.98417 17.2088 3.4175 14.1924C3.85082 11.1761 5.35331 8.41573 7.65124 6.41432C9.94917 4.4129 12.8896 3.30358 15.9369 3.28845C18.4333 3.27605 20.8652 3.99865 22.9372 5.34807C23.6981 5.84362 24.7311 5.77201 25.3207 5.08139Z"/></symbol><symbol viewBox="0 0 16 21" id="location" xmlns="http://www.w3.org/2000/svg"><path fill-rule="evenodd" clip-rule="evenodd" d="M7.262 20.634C7.262 20.634 0 14.518 0 8.5C0 6.37827 0.842855 4.34344 2.34315 2.84315C3.84344 1.34285 5.87827 0.5 8 0.5C10.1217 0.5 12.1566 1.34285 13.6569 2.84315C15.1571 4.34344 16 6.37827 16 8.5C16 14.518 8.738 20.634 8.738 20.634C8.334 21.006 7.669 21.002 7.262 20.634ZM8 12C8.45963 12 8.91475 11.9095 9.33939 11.7336C9.76403 11.5577 10.1499 11.2999 10.4749 10.9749C10.7999 10.6499 11.0577 10.264 11.2336 9.83939C11.4095 9.41475 11.5 8.95963 11.5 8.5C11.5 8.04037 11.4095 7.58525 11.2336 7.16061C11.0577 6.73597 10.7999 6.35013 10.4749 6.02513C10.1499 5.70012 9.76403 5.44231 9.33939 5.26642C8.91475 5.09053 8.45963 5 8 5C7.07174 5 6.1815 5.36875 5.52513 6.02513C4.86875 6.6815 4.5 7.57174 4.5 8.5C4.5 9.42826 4.86875 10.3185 5.52513 10.9749C6.1815 11.6313 7.07174 12 8 12Z"/></symbol><symbol viewBox="0 0 266 266" id="logo" xmlns="http://www.w3.org/2000/svg"><path d="M26.4232 221.395C25.2533 221.395 24.5514 220.743 24.5514 219.613V204.879H19.7256C18.7019 204.879 18 204.321 18 203.43C18 202.539 18.6873 201.98 19.7256 201.98H33.1354C34.1737 201.98 34.861 202.539 34.861 203.43C34.861 204.321 34.1591 204.879 33.1354 204.879H28.3096V219.613C28.3096 220.743 27.6077 221.395 26.4232 221.395Z"/><path d="M40.4911 221.315C38.8971 221.315 37.9612 220.717 37.9612 219.666C37.9612 218.882 38.5754 218.376 39.716 218.376H39.7745C41.3539 218.376 42.2021 217.791 42.904 216.767L36.6012 204.055C36.4696 203.802 36.4111 203.496 36.4111 203.23C36.4111 202.353 37.1862 201.714 38.2537 201.714C39.1311 201.714 39.6137 202.047 40.0231 202.938L44.8197 213.283H45.0098L49.6162 202.924C49.9964 202.06 50.4644 201.714 51.3857 201.714C52.4825 201.714 53.1698 202.313 53.1698 203.19C53.1698 203.456 53.1113 203.762 52.9943 204.028L47.3057 215.717C45.3169 219.799 43.5328 221.315 40.4911 221.315Z"/><path d="M62.8945 221.395C61.7246 221.395 61.0226 220.743 61.0226 219.613V204.879H56.1968C55.1732 204.879 54.4713 204.321 54.4713 203.43C54.4713 202.539 55.1586 201.98 56.1968 201.98H69.6067C70.645 201.98 71.3323 202.539 71.3323 203.43C71.3323 204.321 70.6303 204.879 69.6067 204.879H64.7809V219.613C64.7809 220.743 64.079 221.395 62.8945 221.395Z"/><path d="M88.2225 221.554C83.8939 221.554 80.9838 219.759 79.7408 217.14C79.5507 216.754 79.463 216.395 79.463 216.063C79.463 215.145 80.1649 214.48 81.1886 214.48C81.9636 214.48 82.4462 214.746 82.841 215.438C83.9671 217.565 85.6634 218.576 88.2079 218.576C91.4982 218.576 93.8234 216.302 94.0427 212.791H86.7602C85.795 212.791 85.1077 212.246 85.1077 211.408C85.1077 210.571 85.795 210.025 86.7602 210.025H94.0135C93.6918 206.714 91.3812 204.573 88.2225 204.573C85.8096 204.573 84.0841 205.624 83.0312 207.632C82.5924 208.443 82.0952 208.696 81.3202 208.696C80.2819 208.696 79.58 208.084 79.58 207.14C79.58 206.834 79.6385 206.555 79.7701 206.236C80.6914 203.682 83.9524 201.595 88.2225 201.595C94.189 201.595 97.9619 205.424 97.9619 211.568C97.9619 217.751 94.2328 221.554 88.2225 221.554Z"/><path d="M103.139 221.169C101.969 221.169 101.252 220.504 101.252 219.387V203.762C101.252 202.645 101.969 201.98 103.139 201.98H110.012C113.843 201.98 116.314 203.855 116.314 206.767C116.314 208.829 114.633 210.624 112.468 210.943V211.049C115.335 211.302 117.338 213.177 117.338 215.717C117.338 219.094 114.604 221.169 110.099 221.169H103.139ZM105.025 210.065H108.476C111.108 210.065 112.585 209.055 112.585 207.273C112.585 205.597 111.313 204.653 109.061 204.653H105.025V210.065ZM105.025 218.496H109.237C112.015 218.496 113.492 217.445 113.492 215.477C113.492 213.523 111.971 212.499 109.076 212.499H105.025V218.496Z"/><path d="M121.009 221.395C119.853 221.395 119.108 220.783 119.108 219.812C119.108 219.547 119.181 219.174 119.356 218.762L125.483 203.616C125.995 202.339 126.843 201.754 128.218 201.754C129.607 201.754 130.455 202.313 130.982 203.603L137.124 218.762C137.299 219.201 137.372 219.507 137.372 219.812C137.372 220.743 136.583 221.395 135.486 221.395C134.462 221.395 133.892 220.969 133.556 219.945L132.166 216.275H124.284L122.895 219.919C122.544 220.956 121.988 221.395 121.009 221.395ZM125.176 213.563H131.245L128.247 205.371H128.145L125.176 213.563Z"/><path d="M142.301 221.395C141.131 221.395 140.414 220.73 140.414 219.613V203.536C140.414 202.419 141.131 201.754 142.301 201.754C143.47 201.754 144.187 202.419 144.187 203.536V210.371H144.304L152.786 202.486C153.4 201.927 153.736 201.754 154.307 201.754C155.242 201.754 155.988 202.366 155.988 203.15C155.988 203.576 155.827 203.922 155.433 204.281L147.872 211.102L156.032 218.576C156.442 218.975 156.602 219.307 156.602 219.773C156.602 220.703 155.842 221.395 154.818 221.395C154.146 221.395 153.751 221.182 153.049 220.531L144.304 212.419H144.187V219.613C144.187 220.73 143.47 221.395 142.301 221.395Z"/><path d="M162.51 221.315C160.916 221.315 159.981 220.717 159.981 219.666C159.981 218.882 160.595 218.376 161.735 218.376H161.794C163.373 218.376 164.221 217.791 164.923 216.767L158.621 204.055C158.489 203.802 158.43 203.496 158.43 203.23C158.43 202.353 159.205 201.714 160.273 201.714C161.15 201.714 161.633 202.047 162.042 202.938L166.839 213.283H167.029L171.636 202.924C172.016 202.06 172.484 201.714 173.405 201.714C174.502 201.714 175.189 202.313 175.189 203.19C175.189 203.456 175.131 203.762 175.014 204.028L169.325 215.717C167.336 219.799 165.552 221.315 162.51 221.315Z"/><path d="M176.461 221.395C175.306 221.395 174.56 220.783 174.56 219.812C174.56 219.547 174.633 219.174 174.809 218.762L180.936 203.616C181.448 202.339 182.296 201.754 183.671 201.754C185.06 201.754 185.908 202.313 186.435 203.603L192.577 218.762C192.752 219.201 192.825 219.507 192.825 219.812C192.825 220.743 192.035 221.395 190.939 221.395C189.915 221.395 189.345 220.969 189.008 219.945L187.619 216.275H179.737L178.348 219.919C177.997 220.956 177.441 221.395 176.461 221.395ZM180.629 213.563H186.698L183.7 205.371H183.598L180.629 213.563Z"/><path d="M200.444 221.395C199.274 221.395 198.572 220.743 198.572 219.613V204.879H193.746C192.723 204.879 192.021 204.321 192.021 203.43C192.021 202.539 192.708 201.98 193.746 201.98H207.156C208.195 201.98 208.882 202.539 208.882 203.43C208.882 204.321 208.18 204.879 207.156 204.879H202.33V219.613C202.33 220.743 201.629 221.395 200.444 221.395Z"/><path d="M219.382 221.488C213.225 221.488 209.364 217.685 209.364 211.581C209.364 205.478 213.225 201.661 219.382 201.661C225.524 201.661 229.384 205.478 229.384 211.581C229.384 217.685 225.524 221.488 219.382 221.488ZM219.382 218.562C223.14 218.562 225.538 215.85 225.538 211.581C225.538 207.299 223.14 204.587 219.382 204.587C215.609 204.587 213.225 207.299 213.225 211.581C213.225 215.85 215.609 218.562 219.382 218.562Z"/><path d="M234.576 221.395C233.406 221.395 232.689 220.743 232.689 219.613V203.762C232.689 202.645 233.406 201.98 234.576 201.98H240.893C245.09 201.98 248 204.573 248 208.403C248 212.233 245.002 214.826 240.732 214.826H236.462V219.613C236.462 220.743 235.76 221.395 234.576 221.395ZM236.462 212.06H239.884C242.589 212.06 244.169 210.73 244.169 208.403C244.169 206.103 242.604 204.786 239.899 204.786H236.462V212.06Z"/><path fill-rule="evenodd" clip-rule="evenodd" d="M56.8478 60.0979C57.6222 58.6331 59.4374 58.0734 60.9021 58.8478C73.9868 65.7652 93.8144 76.2665 110.772 85.289C127.631 94.2593 141.873 101.883 143.59 102.956C145.367 104.067 146.617 105.123 147.46 106.09C147.882 106.573 148.232 107.068 148.491 107.569C148.717 108.008 149 108.692 149 109.5V127.5H157.5V133.5H50C49.2549 133.5 48.5672 133.497 47.9292 133.495C46.3613 133.489 45.0933 133.484 44.0091 133.522C42.4432 133.575 41.706 133.714 41.347 133.855C41.2777 133.882 41.2645 133.881 41.2632 133.885C41.2621 133.888 41.2701 133.894 41.2576 133.926C41.1365 134.231 41 134.931 41 136.5V164.5C41 165.915 41.0024 166.988 41.082 167.883C41.162 168.783 41.3016 169.218 41.4097 169.425C41.4654 169.531 41.5096 169.599 41.7283 169.695C42.0439 169.832 42.708 170 44 170H54V176H44C42.292 176 40.7061 175.793 39.3342 175.196C37.8654 174.557 36.7846 173.531 36.0902 172.2C35.4484 170.97 35.213 169.623 35.1055 168.414C34.9999 167.226 34.9999 165.894 35 164.587L35 136.5C35 134.819 35.1135 133.144 35.6799 131.715C36.3407 130.048 37.533 128.907 39.153 128.27C40.544 127.724 42.1818 127.581 43.8034 127.525C45.0093 127.484 46.4513 127.489 48.0776 127.495C48.693 127.498 49.3347 127.5 50 127.5H143V110.106C142.982 110.084 142.962 110.06 142.94 110.035C142.584 109.627 141.833 108.933 140.41 108.044C138.927 107.117 125.002 99.6573 107.953 90.5859C91.0023 81.5668 71.1798 71.0681 58.0979 64.1522C56.6331 63.3778 56.0735 61.5626 56.8478 60.0979Z"/><path fill-rule="evenodd" clip-rule="evenodd" d="M71.5001 93.087V70.5H77.5001V95.913L65.277 106.01C64.8273 106.853 64.624 108.302 65.1722 110.031C65.7552 111.869 67.1118 113.702 69.3416 114.817C72.4202 116.356 74.961 115.718 76.8507 114.301C78.9455 112.729 80 110.382 80 109C80 107.343 81.3431 106 83 106C84.6568 106 86 107.343 86 109C86 112.618 83.7556 116.621 80.4511 119.1C76.9413 121.733 71.9821 122.845 66.6583 120.183C62.8883 118.298 60.4949 115.131 59.4529 111.844C58.4392 108.647 58.6161 104.976 60.5588 102.256L60.7869 101.937L71.5001 93.087Z"/><path fill-rule="evenodd" clip-rule="evenodd" d="M207.02 87.9633C205.904 87.4368 204.876 87.4327 204.272 87.4877L204.136 87.5L168 87.5C165.493 87.5 164.31 88.2897 163.75 88.9009C163.115 89.5947 162.965 90.3975 162.992 90.7863L163 90.893L163 158.5C163 160.157 161.657 161.5 160 161.5C158.343 161.5 157 160.157 157 158.5L157 91.0921C156.896 89.1678 157.556 86.7811 159.325 84.8491C161.207 82.7937 164.107 81.5 168 81.5L203.874 81.5C205.127 81.402 207.255 81.4403 209.58 82.5367C212.05 83.7017 214.44 85.92 216.219 89.7314C218.992 95.6734 226.393 111.229 230.069 118.434C231.535 120.502 233.857 124.505 234.683 126.158C234.967 126.725 235.064 127.353 235.103 127.601L235.104 127.61C235.162 127.987 235.209 128.427 235.248 128.895C235.326 129.839 235.388 131.067 235.437 132.485C235.536 135.33 235.59 139.08 235.612 143.145C235.658 151.283 235.583 160.779 235.5 167.04C235.477 168.729 234.737 170.89 233.649 172.606C232.606 174.251 230.577 176.5 227.5 176.5H216.5C214.843 176.5 213.5 175.157 213.5 173.5C213.5 171.843 214.843 170.5 216.5 170.5H227.5C227.489 170.5 227.489 170.5 227.499 170.497C227.561 170.476 227.983 170.338 228.581 169.394C228.877 168.928 229.119 168.4 229.285 167.906C229.46 167.383 229.499 167.048 229.5 166.96C229.583 160.721 229.658 151.266 229.613 143.179C229.59 139.132 229.537 135.451 229.441 132.693C229.393 131.31 229.335 130.193 229.268 129.393C229.238 129.024 229.208 128.756 229.182 128.578C228.326 126.93 226.221 123.342 225.074 121.765L224.936 121.575L224.829 121.366C221.136 114.147 213.583 98.2713 210.781 92.2687C209.527 89.5799 208.084 88.465 207.02 87.9633ZM229.148 128.388C229.149 128.387 229.152 128.399 229.157 128.427C229.151 128.403 229.148 128.389 229.148 128.388Z"/><path fill-rule="evenodd" clip-rule="evenodd" d="M170.5 139.5C170.5 137.843 171.843 136.5 173.5 136.5H180C181.657 136.5 183 137.843 183 139.5C183 141.157 181.657 142.5 180 142.5H173.5C171.843 142.5 170.5 141.157 170.5 139.5ZM216 140C216 138.343 217.343 137 219 137H231V143H219C217.343 143 216 141.657 216 140Z"/><path fill-rule="evenodd" clip-rule="evenodd" d="M178 177H91V171H178V177Z"/><path fill-rule="evenodd" clip-rule="evenodd" d="M174 94C175.657 94 177 95.3431 177 97V117.5C177 118.374 177.144 118.891 177.27 119.177C177.388 119.446 177.518 119.578 177.627 119.661C177.898 119.867 178.38 120 179 120H223C225.839 120 227.554 120.169 228.79 120.45C229.435 120.596 229.905 120.763 230.275 120.907C230.41 120.96 230.503 120.997 230.571 121.024C230.709 121.078 230.747 121.093 230.824 121.115L229.176 126.885C228.781 126.772 228.399 126.619 228.195 126.537C228.157 126.521 228.125 126.509 228.1 126.499C227.907 126.424 227.731 126.362 227.46 126.3C226.863 126.165 225.661 126 223 126H179C177.787 126 175.769 125.783 173.998 124.439C172.073 122.977 171 120.62 171 117.5V97C171 95.3431 172.343 94 174 94Z"/><path fill-rule="evenodd" clip-rule="evenodd" d="M197 188C204.732 188 211 181.732 211 174C211 166.268 204.732 160 197 160C189.268 160 183 166.268 183 174C183 181.732 189.268 188 197 188ZM197 194C208.046 194 217 185.046 217 174C217 162.954 208.046 154 197 154C185.954 154 177 162.954 177 174C177 185.046 185.954 194 197 194Z"/><path fill-rule="evenodd" clip-rule="evenodd" d="M72 188C79.732 188 86 181.732 86 174C86 166.268 79.732 160 72 160C64.268 160 58 166.268 58 174C58 181.732 64.268 188 72 188ZM72 194C83.0457 194 92 185.046 92 174C92 162.954 83.0457 154 72 154C60.9543 154 52 162.954 52 174C52 185.046 60.9543 194 72 194Z"/></symbol><symbol viewBox="0 0 15 20" id="tel" xmlns="http://www.w3.org/2000/svg"><path d="M2.77204 0.439054L3.84904 0.0950539C4.85704 -0.226946 5.93504 0.294054 6.36704 1.31205L7.22704 3.34005C7.60204 4.22305 7.39404 5.26205 6.71304 5.90805L4.82004 7.70605C4.93671 8.78205 5.29804 9.84105 5.90404 10.8831C6.48031 11.8909 7.25248 12.7732 8.17504 13.4781L10.451 12.7181C11.313 12.4311 12.252 12.7621 12.781 13.5391L14.013 15.3491C14.629 16.2531 14.518 17.4991 13.755 18.2651L12.937 19.0861C12.123 19.9031 10.961 20.2001 9.88504 19.8641C7.34637 19.0721 5.01204 16.7211 2.88204 12.8111C0.749374 8.89439 -0.0032928 5.57172 0.624041 2.84305C0.888041 1.69505 1.70604 0.780054 2.77404 0.439054"/></symbol><symbol viewBox="0 0 24 20" id="tel2" xmlns="http://www.w3.org/2000/svg"><path d="M20.7072 12.7035C20.592 11.9031 19.974 11.2791 19.1784 11.0931C16.086 10.3683 15.3108 8.5875 15.18 6.6123C14.6316 6.5103 13.656 6.3999 12 6.3999C10.344 6.3999 9.36843 6.5103 8.82003 6.6123C8.68923 8.5875 7.91403 10.3683 4.82163 11.0931C4.02603 11.2803 3.40803 11.9031 3.29283 12.7035L2.69643 16.8339C2.48643 18.2883 3.55443 19.5999 5.04003 19.5999H18.96C20.4444 19.5999 21.5136 18.2883 21.3036 16.8339L20.7072 12.7035ZM12 16.5903C10.326 16.5903 8.96883 15.2463 8.96883 13.5903C8.96883 11.9343 10.326 10.5903 12 10.5903C13.674 10.5903 15.0312 11.9343 15.0312 13.5903C15.0312 15.2463 13.6728 16.5903 12 16.5903ZM23.94 5.1999C23.9112 3.3999 19.3296 0.401102 12 0.399902C4.66923 0.401102 0.0876344 3.3999 0.0600344 5.1999C0.0324344 6.9999 0.0852345 9.3423 3.10203 8.9523C6.63123 8.4951 6.41403 7.2627 6.41403 5.5011C6.41403 4.2723 9.28443 3.9759 12 3.9759C14.7156 3.9759 17.5848 4.2723 17.586 5.5011C17.586 7.2627 17.3688 8.4951 20.898 8.9523C23.9136 9.3423 23.9676 6.9999 23.94 5.1999Z"/></symbol><symbol viewBox="0 0 16 26" id="top" xmlns="http://www.w3.org/2000/svg"><path d="M7 25C7 25.5523 7.44771 26 8 26C8.55228 26 9 25.5523 9 25L7 25ZM8.70711 0.292893C8.31658 -0.0976311 7.68342 -0.0976311 7.29289 0.292893L0.928932 6.65685C0.538408 7.04738 0.538408 7.68054 0.928932 8.07107C1.31946 8.46159 1.95262 8.46159 2.34315 8.07107L8 2.41421L13.6569 8.07107C14.0474 8.46159 14.6805 8.46159 15.0711 8.07107C15.4616 7.68054 15.4616 7.04738 15.0711 6.65685L8.70711 0.292893ZM9 25L9 1L7 1L7 25L9 25Z"/></symbol></svg>