<?xml version="1.0" encoding="utf-8"?><svg viewBox="0 0 266 266" xmlns="http://www.w3.org/2000/svg" xmlns:xlink="http://www.w3.org/1999/xlink"><style>:root>svg{display:none}:root>svg:target{display:block}</style><svg fill="none" viewBox="0 0 82 73" id="ad-advert" xmlns="http://www.w3.org/2000/svg"><path d="M49.667 17.124H38.833c-1.724 0-3.378.613-4.597 1.703-1.218 1.09-1.903 2.568-1.903 4.11 0 1.541.684 3.02 1.903 4.11 1.22 1.09 2.873 1.702 4.597 1.702h4.334c1.724 0 3.378.613 4.597 1.703 1.218 1.09 1.903 2.568 1.903 4.11 0 .763-.168 1.519-.494 2.224a5.817 5.817 0 0 1-1.41 1.886c-.603.54-1.32.968-2.108 1.26a7.173 7.173 0 0 1-2.488.442H32.333m8.667 0v3.877m0-31.001v3.874" stroke="#344054" stroke-width="2.08" stroke-linecap="round" stroke-linejoin="round"/><path d="M15 71.375h52m8.667-69.75H6.333C3.94 1.625 2 3.36 2 5.499V52c0 2.14 1.94 3.877 4.333 3.877h69.334c2.392 0 4.333-1.736 4.333-3.877V5.5c0-2.139-1.94-3.874-4.333-3.874Z" stroke="#0297D4" stroke-width="2.08" stroke-linecap="round" stroke-linejoin="round"/></svg><svg fill="none" viewBox="0 0 15 26" id="arrow-left" xmlns="http://www.w3.org/2000/svg"><path d="M14 1 2 13l12 12" stroke="#0297D4" stroke-width="2" stroke-linecap="round"/></svg><svg fill="none" viewBox="0 0 15 26" id="arrow-right" xmlns="http://www.w3.org/2000/svg"><path d="m1 1 12 12L1 25" stroke="#0297D4" stroke-width="2" stroke-linecap="round"/></svg><svg fill="none" viewBox="0 0 34 32" id="done" xmlns="http://www.w3.org/2000/svg"><path fill-rule="evenodd" clip-rule="evenodd" d="M33.043 2.922a1.5 1.5 0 0 1 .035 2.121l-16.56 17.114-7.596-7.85a1.5 1.5 0 1 1 2.156-2.087l5.44 5.623L30.922 2.957a1.5 1.5 0 0 1 2.121-.035Z" fill="#0297D4"/><path d="M25.32 5.081c.59-.69.512-1.736-.235-2.252a16 16 0 1 0 6.682 10.451c-.154-.895-1.07-1.404-1.945-1.159-.874.245-1.373 1.153-1.242 2.052a12.712 12.712 0 1 1-5.643-8.825c.761.496 1.794.424 2.384-.267Z" fill="#0297D4"/></svg><svg fill="none" viewBox="0 0 16 21" id="location" xmlns="http://www.w3.org/2000/svg"><path fill-rule="evenodd" clip-rule="evenodd" d="M7.262 20.634S0 14.518 0 8.5a8 8 0 1 1 16 0c0 6.018-7.262 12.134-7.262 12.134-.404.372-1.069.368-1.476 0ZM8 12a3.5 3.5 0 1 0 0-7 3.5 3.5 0 0 0 0 7Z" fill="#777"/></svg><svg fill="none" viewBox="0 0 266 266" id="logo" xmlns="http://www.w3.org/2000/svg"><path d="M26.423 221.395c-1.17 0-1.872-.652-1.872-1.782v-14.734h-4.825c-1.024 0-1.726-.558-1.726-1.449s.687-1.45 1.726-1.45h13.41c1.038 0 1.725.559 1.725 1.45 0 .891-.702 1.449-1.726 1.449H28.31v14.734c0 1.13-.702 1.782-1.887 1.782ZM40.491 221.315c-1.594 0-2.53-.598-2.53-1.649 0-.784.614-1.29 1.755-1.29h.059c1.579 0 2.427-.585 3.129-1.609l-6.303-12.712a1.846 1.846 0 0 1-.19-.825c0-.877.775-1.516 1.843-1.516.877 0 1.36.333 1.77 1.224l4.796 10.345h.19l4.606-10.359c.38-.864.848-1.21 1.77-1.21 1.096 0 1.784.599 1.784 1.476 0 .266-.059.572-.176.838l-5.688 11.689c-1.99 4.082-3.773 5.598-6.815 5.598ZM62.895 221.395c-1.17 0-1.872-.652-1.872-1.782v-14.734h-4.826c-1.024 0-1.726-.558-1.726-1.449s.688-1.45 1.726-1.45h13.41c1.038 0 1.725.559 1.725 1.45 0 .891-.702 1.449-1.725 1.449H64.78v14.734c0 1.13-.702 1.782-1.887 1.782ZM88.222 221.554c-4.328 0-7.238-1.795-8.481-4.414-.19-.386-.278-.745-.278-1.077 0-.918.702-1.583 1.726-1.583.775 0 1.257.266 1.652.958 1.126 2.127 2.822 3.138 5.367 3.138 3.29 0 5.615-2.274 5.835-5.785H86.76c-.965 0-1.652-.545-1.652-1.383 0-.837.687-1.383 1.652-1.383h7.253c-.321-3.311-2.632-5.452-5.79-5.452-2.413 0-4.139 1.051-5.192 3.059-.439.811-.936 1.064-1.71 1.064-1.04 0-1.741-.612-1.741-1.556 0-.306.058-.585.19-.904.921-2.554 4.182-4.641 8.453-4.641 5.966 0 9.739 3.829 9.739 9.973 0 6.183-3.73 9.986-9.74 9.986ZM103.139 221.169c-1.17 0-1.887-.665-1.887-1.782v-15.625c0-1.117.717-1.782 1.887-1.782h6.873c3.831 0 6.302 1.875 6.302 4.787 0 2.062-1.681 3.857-3.846 4.176v.106c2.867.253 4.87 2.128 4.87 4.668 0 3.377-2.734 5.452-7.239 5.452h-6.96Zm1.886-11.104h3.451c2.632 0 4.109-1.01 4.109-2.792 0-1.676-1.272-2.62-3.524-2.62h-4.036v5.412Zm0 8.431h4.212c2.778 0 4.255-1.051 4.255-3.019 0-1.954-1.521-2.978-4.416-2.978h-4.051v5.997ZM121.009 221.395c-1.156 0-1.901-.612-1.901-1.583 0-.265.073-.638.248-1.05l6.127-15.146c.512-1.277 1.36-1.862 2.735-1.862 1.389 0 2.237.559 2.764 1.849l6.142 15.159c.175.439.248.745.248 1.05 0 .931-.789 1.583-1.886 1.583-1.024 0-1.594-.426-1.93-1.45l-1.39-3.67h-7.882l-1.389 3.644c-.351 1.037-.907 1.476-1.886 1.476Zm4.167-7.832h6.069l-2.998-8.192h-.102l-2.969 8.192ZM142.301 221.395c-1.17 0-1.887-.665-1.887-1.782v-16.077c0-1.117.717-1.782 1.887-1.782 1.169 0 1.886.665 1.886 1.782v6.835h.117l8.482-7.885c.614-.559.95-.732 1.521-.732.935 0 1.681.612 1.681 1.396 0 .426-.161.772-.555 1.131l-7.561 6.821 8.16 7.474c.41.399.57.731.57 1.197 0 .93-.76 1.622-1.784 1.622-.672 0-1.067-.213-1.769-.864l-8.745-8.112h-.117v7.194c0 1.117-.717 1.782-1.886 1.782ZM162.51 221.315c-1.594 0-2.529-.598-2.529-1.649 0-.784.614-1.29 1.754-1.29h.059c1.579 0 2.427-.585 3.129-1.609l-6.302-12.712a1.842 1.842 0 0 1-.191-.825c0-.877.775-1.516 1.843-1.516.877 0 1.36.333 1.769 1.224l4.797 10.345h.19l4.607-10.359c.38-.864.848-1.21 1.769-1.21 1.097 0 1.784.599 1.784 1.476 0 .266-.058.572-.175.838l-5.689 11.689c-1.989 4.082-3.773 5.598-6.815 5.598ZM176.461 221.395c-1.155 0-1.901-.612-1.901-1.583 0-.265.073-.638.249-1.05l6.127-15.146c.512-1.277 1.36-1.862 2.735-1.862 1.389 0 2.237.559 2.764 1.849l6.142 15.159c.175.439.248.745.248 1.05 0 .931-.79 1.583-1.886 1.583-1.024 0-1.594-.426-1.931-1.45l-1.389-3.67h-7.882l-1.389 3.644c-.351 1.037-.907 1.476-1.887 1.476Zm4.168-7.832h6.069l-2.998-8.192h-.102l-2.969 8.192ZM200.444 221.395c-1.17 0-1.872-.652-1.872-1.782v-14.734h-4.826c-1.023 0-1.725-.558-1.725-1.449s.687-1.45 1.725-1.45h13.41c1.039 0 1.726.559 1.726 1.45 0 .891-.702 1.449-1.726 1.449h-4.826v14.734c0 1.13-.701 1.782-1.886 1.782ZM219.382 221.488c-6.157 0-10.018-3.803-10.018-9.907 0-6.103 3.861-9.92 10.018-9.92 6.142 0 10.002 3.817 10.002 9.92 0 6.104-3.86 9.907-10.002 9.907Zm0-2.926c3.758 0 6.156-2.712 6.156-6.981 0-4.282-2.398-6.994-6.156-6.994-3.773 0-6.157 2.712-6.157 6.994 0 4.269 2.384 6.981 6.157 6.981ZM234.576 221.395c-1.17 0-1.887-.652-1.887-1.782v-15.851c0-1.117.717-1.782 1.887-1.782h6.317c4.197 0 7.107 2.593 7.107 6.423s-2.998 6.423-7.268 6.423h-4.27v4.787c0 1.13-.702 1.782-1.886 1.782Zm1.886-9.335h3.422c2.705 0 4.285-1.33 4.285-3.657 0-2.3-1.565-3.617-4.27-3.617h-3.437v7.274Z" fill="#0297D4"/><path fill-rule="evenodd" clip-rule="evenodd" d="M56.848 60.098a3 3 0 0 1 4.054-1.25 23183.012 23183.012 0 0 1 49.87 26.441c16.859 8.97 31.101 16.594 32.818 17.667 1.777 1.111 3.027 2.167 3.87 3.134.422.483.772.978 1.031 1.479.226.439.509 1.123.509 1.931v18h8.5v6H50c-.745 0-1.433-.003-2.07-.005-1.569-.006-2.837-.011-3.92.027-1.567.053-2.304.192-2.663.333-.07.027-.083.026-.084.03 0 .003.007.009-.005.041-.122.305-.258 1.005-.258 2.574v28c0 1.415.002 2.488.082 3.383.08.9.22 1.335.328 1.542.055.106.1.174.318.27.316.137.98.305 2.272.305h10v6H44c-1.708 0-3.294-.207-4.666-.804-1.469-.639-2.55-1.665-3.244-2.996-.642-1.23-.877-2.577-.985-3.786-.105-1.188-.105-2.52-.105-3.827V136.5c0-1.681.114-3.356.68-4.785.66-1.667 1.853-2.808 3.473-3.445 1.391-.546 3.029-.689 4.65-.745 1.206-.041 2.648-.036 4.275-.03.615.003 1.257.005 1.922.005h93v-17.394a2.57 2.57 0 0 0-.06-.071c-.356-.408-1.107-1.102-2.53-1.991-1.483-.927-15.408-8.387-32.457-17.458a23059.39 23059.39 0 0 0-49.855-26.434 3 3 0 0 1-1.25-4.054Z" fill="#0297D4"/><path fill-rule="evenodd" clip-rule="evenodd" d="M71.5 93.087V70.5h6v25.413L65.277 106.01c-.45.843-.653 2.292-.105 4.021.583 1.838 1.94 3.671 4.17 4.786 3.078 1.539 5.619.901 7.509-.516C78.945 112.729 80 110.382 80 109a3 3 0 1 1 6 0c0 3.618-2.244 7.621-5.549 10.1-3.51 2.633-8.469 3.745-13.793 1.083-3.77-1.885-6.163-5.052-7.205-8.339-1.014-3.197-.837-6.868 1.106-9.588l.228-.319 10.713-8.85ZM207.02 87.963a5.293 5.293 0 0 0-2.748-.475l-.136.012H168c-2.507 0-3.69.79-4.25 1.4-.635.695-.785 1.497-.758 1.886l.008.107V158.5a3 3 0 1 1-6 0V91.092c-.104-1.924.556-4.31 2.325-6.243 1.882-2.055 4.782-3.349 8.675-3.349h35.874a11.287 11.287 0 0 1 5.706 1.037c2.47 1.165 4.86 3.383 6.639 7.194 2.773 5.942 10.174 21.498 13.85 28.703 1.466 2.068 3.788 6.071 4.614 7.724.284.567.381 1.195.42 1.443l.001.009c.058.377.105.817.144 1.285.078.944.14 2.172.189 3.59.099 2.845.153 6.595.175 10.66.046 8.138-.029 17.634-.112 23.895-.023 1.689-.763 3.85-1.851 5.566-1.043 1.645-3.072 3.894-6.149 3.894h-11a3 3 0 1 1 0-6h11c-.011 0-.011 0-.001-.003.062-.021.484-.159 1.082-1.103.296-.466.538-.994.704-1.488.175-.523.214-.858.215-.946.083-6.239.158-15.694.113-23.781-.023-4.047-.076-7.728-.172-10.486a72.272 72.272 0 0 0-.173-3.3c-.03-.369-.06-.637-.086-.815-.856-1.648-2.961-5.236-4.108-6.813l-.138-.19-.107-.209c-3.693-7.219-11.246-23.095-14.048-29.097-1.254-2.69-2.697-3.804-3.761-4.306Zm22.128 40.425a.635.635 0 0 1 0 0Z" fill="#0297D4"/><path fill-rule="evenodd" clip-rule="evenodd" d="M170.5 139.5a3 3 0 0 1 3-3h6.5a3 3 0 1 1 0 6h-6.5a3 3 0 0 1-3-3Zm45.5.5a3 3 0 0 1 3-3h12v6h-12a3 3 0 0 1-3-3ZM178 177H91v-6h87v6ZM174 94a3 3 0 0 1 3 3v20.5c0 .874.144 1.391.27 1.677.118.269.248.401.357.484.271.206.753.339 1.373.339h44c2.839 0 4.554.169 5.79.45a10.04 10.04 0 0 1 1.485.457l.296.117c.138.054.176.069.253.091l-1.648 5.77a10.236 10.236 0 0 1-.981-.348l-.095-.038a4.19 4.19 0 0 0-.64-.199c-.597-.135-1.799-.3-4.46-.3h-44c-1.213 0-3.231-.217-5.002-1.561-1.925-1.462-2.998-3.819-2.998-6.939V97a3 3 0 0 1 3-3Z" fill="#0297D4"/><path fill-rule="evenodd" clip-rule="evenodd" d="M197 188c7.732 0 14-6.268 14-14s-6.268-14-14-14-14 6.268-14 14 6.268 14 14 14Zm0 6c11.046 0 20-8.954 20-20s-8.954-20-20-20-20 8.954-20 20 8.954 20 20 20ZM72 188c7.732 0 14-6.268 14-14s-6.268-14-14-14-14 6.268-14 14 6.268 14 14 14Zm0 6c11.046 0 20-8.954 20-20s-8.954-20-20-20-20 8.954-20 20 8.954 20 20 20Z" fill="#0297D4"/></svg><svg fill="none" viewBox="0 0 15 20" id="tel" xmlns="http://www.w3.org/2000/svg"><path d="M2.772.44 3.849.094c1.008-.322 2.086.2 2.518 1.217l.86 2.028c.375.883.167 1.922-.514 2.568L4.82 7.706c.117 1.076.478 2.135 1.084 3.177a8.702 8.702 0 0 0 2.271 2.595l2.276-.76c.862-.287 1.801.044 2.33.821l1.232 1.81c.616.904.505 2.15-.258 2.916l-.818.821c-.814.817-1.976 1.114-3.052.778-2.539-.792-4.873-3.143-7.003-7.053C.749 8.894-.003 5.571.624 2.843.888 1.695 1.706.78 2.774.439" fill="#fff"/></svg><svg fill="none" viewBox="0 0 24 20" id="tel2" xmlns="http://www.w3.org/2000/svg"><path d="M20.707 12.704c-.115-.8-.733-1.425-1.529-1.61-3.092-.726-3.867-2.506-3.998-4.482C14.632 6.51 13.656 6.4 12 6.4c-1.656 0-2.632.11-3.18.212-.13 1.976-.906 3.756-3.998 4.481-.796.187-1.414.81-1.53 1.61l-.596 4.13c-.21 1.455.858 2.767 2.344 2.767h13.92c1.484 0 2.554-1.312 2.344-2.766l-.597-4.13ZM12 16.59c-1.674 0-3.031-1.344-3.031-3s1.357-3 3.031-3c1.674 0 3.031 1.344 3.031 3s-1.358 3-3.031 3ZM23.94 5.2C23.911 3.4 19.33.4 12 .4 4.67.4.088 3.4.06 5.2.032 7 .085 9.342 3.102 8.952c3.53-.457 3.312-1.69 3.312-3.45 0-1.23 2.87-1.526 5.586-1.526s5.585.296 5.586 1.525c0 1.762-.217 2.994 3.312 3.451 3.016.39 3.07-1.952 3.042-3.752Z" fill="#fff"/></svg><svg fill="none" viewBox="0 0 16 26" id="top" xmlns="http://www.w3.org/2000/svg"><path d="M7 25a1 1 0 1 0 2 0H7ZM8.707.293a1 1 0 0 0-1.414 0L.929 6.657A1 1 0 0 0 2.343 8.07L8 2.414l5.657 5.657a1 1 0 1 0 1.414-1.414L8.707.293ZM9 25V1H7v24h2Z" fill="#0297D4"/></svg></svg>